%
M48
M72
T01C0.0240
T02C0.0276
T03C0.0320
T04C0.0380
T05C0.0394
T06C0.0400
T07C0.0472
T08C0.0590
T09C0.1260
%
T01
X13850Y8100
X15600Y9850
X16600Y11600
X17600Y11350
X18850Y11100
X19350Y10600
X22350Y9350
X24100Y8850
X26100Y8350
X26100Y9350
X26100Y10350
X27600Y9850
X29600Y10350
X29850Y11850
X28100Y11850
X31100Y13600
X33850Y13600
X34100Y12100
X34100Y11100
X34350Y10600
X34350Y10100
X34850Y10100
X34350Y15850
X31650Y17150
X29350Y16600
X28850Y20600
X31600Y21350
X33850Y21100
X35100Y22350
X33850Y22850
X35100Y23350
X27600Y27600
X27100Y26600
X25350Y26850
X24600Y26100
X24100Y26100
X22850Y25850
X22850Y26350
X20850Y26850
X20100Y26600
X19100Y26600
X19100Y26100
X18100Y25600
X18100Y25100
X16850Y24350
X15850Y23850
X16850Y22850
X17850Y23100
X18100Y23600
X18350Y22850
X17850Y22350
X18600Y21850
X16850Y21850
X15850Y20600
X17600Y18600
X16350Y17100
X16600Y16600
X16600Y15600
X15850Y15100
X17100Y14350
X16600Y13850
X17600Y15600
X17600Y16600
X18600Y14600
X19600Y15600
X20100Y14850
X20100Y14350
X21850Y14100
X22600Y13350
X22600Y12850
X23100Y12850
X23100Y13350
X22850Y15100
X21850Y17350
X23100Y17600
X19600Y17600
X22850Y21100
X21600Y22600
X22350Y23600
X23600Y23100
X24850Y22100
X25350Y21100
X20100Y24100
X16350Y27600
X14100Y27350
X14100Y26850
X14600Y24600
X19100Y28850
X20350Y27850
X20850Y27850
X14600Y29350
X13600Y17850
X14100Y16100
X13350Y15350
X12850Y16100
X14100Y12850
X14600Y11850
T02
X30100Y11084
X30100Y9116
X31100Y15600
X30100Y26100
X30100Y27100
X29100Y26100
T03
X29100Y27100
X28100Y27100
X28100Y26100
X26100Y26100
X22600Y22600
X22600Y20600
X22600Y18600
X22600Y15600
X22600Y14600
X22600Y11600
X18600Y11600
X17100Y10600
X16100Y10600
X15100Y10600
X15600Y11600
X16100Y9100
X16100Y8100
X17100Y7600
X18100Y7600
X19100Y7600
X20100Y7600
X27100Y13600
X27100Y14600
X25850Y15600
X28850Y15600
X32100Y14100
X33100Y14100
X32600Y11600
X33600Y11600
T04
X21100Y13100
X21100Y14100
X20100Y13100
X19100Y14100
X18100Y14100
X18100Y13100
X17100Y13100
X16100Y13100
X15100Y13100
X15100Y14100
X15100Y15100
X15100Y16100
X15100Y17100
X15100Y18100
X15100Y19100
X15100Y20100
X15100Y21100
X15100Y22100
X15100Y23100
X15100Y24100
X15100Y25100
X15100Y26100
X20100Y25100
X21100Y25100
X21100Y24100
X21100Y23100
X21100Y22100
X20100Y22100
X20100Y23100
X20100Y21100
X21100Y21100
X21100Y20100
X21100Y19100
X21100Y18100
X21100Y17100
X21100Y16100
X21100Y15100
X19100Y15100
X19100Y16100
X18100Y16100
X18100Y15100
X18100Y17100
X18100Y18100
X18100Y19100
X19100Y19100
X19100Y18100
X19100Y17100
X19100Y20100
X18100Y20100
X21100Y26100
T05
X24600Y11600
X25600Y11600
X26600Y11600
T06
X12600Y7600
X12600Y8600
X12600Y9600
X12600Y10600
X12600Y11600
X12600Y12600
X14600Y9600
X14600Y8600
X14600Y7600
X20600Y9600
X20600Y10600
X21600Y7600
X22600Y7600
X23600Y7600
X24600Y7600
X25600Y7600
X26600Y7600
X30100Y13100
X30100Y14100
X30100Y15100
X30100Y16100
X30100Y17100
X30100Y18100
X30100Y19600
X30100Y20600
X30100Y21600
X30100Y22600
X30100Y23600
X30100Y24600
X33100Y24600
X33100Y25600
X33100Y26600
X35600Y27600
X35600Y28600
X35600Y29600
X35600Y30600
X35600Y31600
X35600Y32600
X33600Y32600
X33600Y31600
X33600Y30600
X26600Y28100
X25600Y28100
X24600Y28100
X23600Y28100
X22600Y28100
X21600Y28100
X19600Y28100
X18600Y28100
X17600Y28100
X14600Y30600
X14600Y31600
X14600Y32600
X12600Y32600
X12600Y31600
X12600Y30600
X12600Y29600
X12600Y28600
X12600Y27600
X12600Y21600
X12600Y20600
X12600Y19600
X12600Y18600
X24600Y15600
X24600Y14600
X24600Y13600
X33600Y9600
X33600Y8600
X33600Y7600
X35600Y7600
X35600Y8600
X35600Y9600
X35600Y10600
X35600Y11600
X35600Y12600
X35600Y18600
X35600Y19600
X35600Y20600
X35600Y21600
X33100Y23600
T07
X26092Y24092
X26092Y23092
X26092Y22092
X26092Y21092
X26092Y20092
X26092Y19092
X26092Y18092
X24092Y17592
X24092Y18592
X24092Y19592
X24092Y20592
X24092Y21592
X24092Y22592
X24092Y23592
X24092Y24592
T08
X32600Y22100
X32600Y16100
T09
X18590Y9753
X29613Y30422
M30
